Coordinates
version=1
nRows=27
nColumns=12
inDegrees=yes

Units are S.I. units (second, meters, Newtons, ...)
Angles are in degrees

endheader
time	SC_y	SC_z	SC_x	AC_y	AC_z	AC_x	GH_y	GH_z	GH_yy	EL_x	PS_y
       0.0               -29.1          4.722           13.4          50.88         -13.91          -2.71         -133.8          5.713          5.818          136.5          31.66
   0.04782              -29.09          4.722          13.41          50.88          -13.9         -2.709         -133.8          5.724          5.842          136.4          31.66
   0.09565              -29.09          4.722          13.41          50.88          -13.9         -2.707         -133.7          5.735          5.867          136.4          31.66
    0.1435              -29.09          4.722          13.41          50.88          -13.9         -2.705         -133.7          5.747          5.893          136.4          31.66
    0.1913              -29.09          4.721          13.41          50.88          -13.9         -2.703         -133.7           5.76          5.922          136.4          31.65
    0.2391              -29.08          4.721          13.41          50.88         -13.89           -2.7         -133.7          5.773          5.952          136.4          31.65
    0.2869              -29.08          4.721          13.42          50.88         -13.89         -2.698         -133.6          5.788          5.984          136.4          31.65
    0.3348              -29.08          4.721          13.42          50.88         -13.89         -2.695         -133.6          5.803          6.019          136.4          31.65
    0.3826              -29.08          4.721          13.42          50.87         -13.88         -2.693         -133.6           5.82          6.056          136.4          31.64
    0.4304              -29.07          4.721          13.42          50.87         -13.88          -2.69         -133.6          5.838          6.096          136.4          31.64
    0.4782              -29.07           4.72          13.43          50.87         -13.87         -2.686         -133.5          5.857          6.138          136.4          31.64
    0.5261              -29.06           4.72          13.43          50.87         -13.87         -2.683         -133.5          5.877          6.184          136.4          31.63
    0.5739              -29.06           4.72          13.44          50.87         -13.86         -2.679         -133.4            5.9          6.234          136.4          31.63
    0.6217              -29.06           4.72          13.44          50.86         -13.86         -2.675         -133.4          5.924          6.287          136.4          31.62
    0.6695              -29.05          4.719          13.44          50.86         -13.85         -2.671         -133.4           5.95          6.345          136.4          31.62
    0.7174              -29.05          4.719          13.45          50.86         -13.84         -2.666         -133.3          5.978          6.408          136.3          31.61
    0.7652              -29.04          4.719          13.45          50.86         -13.84         -2.661         -133.3          6.008          6.476          136.3          31.61
     0.813              -29.03          4.718          13.46          50.85         -13.83         -2.656         -133.2          6.042           6.55          136.3           31.6
    0.8608              -29.03          4.718          13.47          50.85         -13.82          -2.65         -133.1          6.078          6.631          136.3           31.6
    0.9087              -29.02          4.718          13.47          50.84         -13.81         -2.643         -133.1          6.118           6.72          136.3          31.59
    0.9565              -29.01          4.717          13.48          50.84          -13.8         -2.636         -133.0          6.162          6.818          136.3          31.58
     1.004               -29.0          4.717          13.49          50.84         -13.79         -2.628         -132.9           6.21          6.925          136.2          31.57
     1.052              -28.99          4.716           13.5          50.83         -13.78         -2.619         -132.8          6.263          7.044          136.2          31.56
       1.1              -28.98          4.715          13.51          50.82         -13.76         -2.609         -132.7          6.322          7.175          136.2          31.55
     1.148              -28.97          4.715          13.52          50.82         -13.75         -2.598         -132.6          6.388          7.321          136.2          31.54
     1.196              -28.95          4.714          13.53          50.81         -13.73         -2.586         -132.5          6.461          7.484          136.1          31.53
     1.243              -28.94          4.713          13.54           50.8         -13.71         -2.572         -132.3          6.543          7.666          136.1          31.51
